<svg xmlns="http://www.w3.org/2000/svg" version="1.1" xmlns:xlink="http://www.w3.org/1999/xlink" xmlns:svgjs="http://svgjs.dev/svgjs" viewBox="0 0 1422 800" opacity="1"><g stroke-width="4.5" stroke="hsl(205, 69%, 50%)" fill="none" stroke-linecap="round"><line x1="56" y1="0" x2="0" y2="56" opacity="1.00"></line><line x1="112" y1="0" x2="56" y2="56" opacity="1.00"></line><line x1="168" y1="0" x2="112" y2="56" opacity="1.00"></line><line x1="168" y1="0" x2="224" y2="56" opacity="1.00"></line><line x1="280" y1="0" x2="224" y2="56" opacity="1.00"></line><line x1="336" y1="0" x2="280" y2="56" opacity="1.00"></line><line x1="392" y1="0" x2="336" y2="56" opacity="1.00"></line><line x1="448" y1="0" x2="392" y2="56" opacity="1.00"></line><line x1="504" y1="0" x2="448" y2="56" opacity="1.00"></line><line x1="560" y1="0" x2="504" y2="56" opacity="1.00"></line><line x1="616" y1="0" x2="560" y2="56" opacity="1.00"></line><line x1="616" y1="0" x2="672" y2="56" opacity="1.00"></line><line x1="728" y1="0" x2="672" y2="56" opacity="1.00"></line><line x1="728" y1="0" x2="784" y2="56" opacity="1.00"></line><line x1="840" y1="0" x2="784" y2="56" opacity="1.00"></line><line x1="896" y1="0" x2="840" y2="56" opacity="1.00"></line><line x1="952" y1="0" x2="896" y2="56" opacity="1.00"></line><line x1="1008" y1="0" x2="952" y2="56" opacity="1.00"></line><line x1="1008" y1="0" x2="1064" y2="56" opacity="1.00"></line><line x1="1120" y1="0" x2="1064" y2="56" opacity="1.00"></line><line x1="1120" y1="0" x2="1176" y2="56" opacity="1.00"></line><line x1="1176" y1="0" x2="1232" y2="56" opacity="1.00"></line><line x1="1288" y1="0" x2="1232" y2="56" opacity="1.00"></line><line x1="1288" y1="0" x2="1344" y2="56" opacity="1.00"></line><line x1="1344" y1="0" x2="1400" y2="56" opacity="1.00"></line><line x1="1456" y1="0" x2="1400" y2="56" opacity="1.00"></line><line x1="56" y1="56" x2="0" y2="112" opacity="0.93"></line><line x1="56" y1="56" x2="112" y2="112" opacity="0.93"></line><line x1="168" y1="56" x2="112" y2="112" opacity="0.93"></line><line x1="168" y1="56" x2="224" y2="112" opacity="0.93"></line><line x1="224" y1="56" x2="280" y2="112" opacity="0.93"></line><line x1="336" y1="56" x2="280" y2="112" opacity="0.93"></line><line x1="392" y1="56" x2="336" y2="112" opacity="0.93"></line><line x1="448" y1="56" x2="392" y2="112" opacity="0.93"></line><line x1="504" y1="56" x2="448" y2="112" opacity="0.93"></line><line x1="560" y1="56" x2="504" y2="112" opacity="0.93"></line><line x1="560" y1="56" x2="616" y2="112" opacity="0.93"></line><line x1="616" y1="56" x2="672" y2="112" opacity="0.93"></line><line x1="728" y1="56" x2="672" y2="112" opacity="0.93"></line><line x1="784" y1="56" x2="728" y2="112" opacity="0.93"></line><line x1="840" y1="56" x2="784" y2="112" opacity="0.93"></line><line x1="840" y1="56" x2="896" y2="112" opacity="0.93"></line><line x1="896" y1="56" x2="952" y2="112" opacity="0.93"></line><line x1="1008" y1="56" x2="952" y2="112" opacity="0.93"></line><line x1="1064" y1="56" x2="1008" y2="112" opacity="0.93"></line><line x1="1064" y1="56" x2="1120" y2="112" opacity="0.93"></line><line x1="1176" y1="56" x2="1120" y2="112" opacity="0.93"></line><line x1="1232" y1="56" x2="1176" y2="112" opacity="0.93"></line><line x1="1288" y1="56" x2="1232" y2="112" opacity="0.93"></line><line x1="1344" y1="56" x2="1288" y2="112" opacity="0.93"></line><line x1="1400" y1="56" x2="1344" y2="112" opacity="0.93"></line><line x1="1456" y1="56" x2="1400" y2="112" opacity="0.93"></line><line x1="56" y1="112" x2="0" y2="168" opacity="0.87"></line><line x1="56" y1="112" x2="112" y2="168" opacity="0.87"></line><line x1="112" y1="112" x2="168" y2="168" opacity="0.87"></line><line x1="224" y1="112" x2="168" y2="168" opacity="0.87"></line><line x1="280" y1="112" x2="224" y2="168" opacity="0.87"></line><line x1="336" y1="112" x2="280" y2="168" opacity="0.87"></line><line x1="336" y1="112" x2="392" y2="168" opacity="0.87"></line><line x1="448" y1="112" x2="392" y2="168" opacity="0.87"></line><line x1="504" y1="112" x2="448" y2="168" opacity="0.87"></line><line x1="560" y1="112" x2="504" y2="168" opacity="0.87"></line><line x1="616" y1="112" x2="560" y2="168" opacity="0.87"></line><line x1="672" y1="112" x2="616" y2="168" opacity="0.87"></line><line x1="672" y1="112" x2="728" y2="168" opacity="0.87"></line><line x1="784" y1="112" x2="728" y2="168" opacity="0.87"></line><line x1="840" y1="112" x2="784" y2="168" opacity="0.87"></line><line x1="840" y1="112" x2="896" y2="168" opacity="0.87"></line><line x1="952" y1="112" x2="896" y2="168" opacity="0.87"></line><line x1="1008" y1="112" x2="952" y2="168" opacity="0.87"></line><line x1="1064" y1="112" x2="1008" y2="168" opacity="0.87"></line><line x1="1064" y1="112" x2="1120" y2="168" opacity="0.87"></line><line x1="1176" y1="112" x2="1120" y2="168" opacity="0.87"></line><line x1="1232" y1="112" x2="1176" y2="168" opacity="0.87"></line><line x1="1288" y1="112" x2="1232" y2="168" opacity="0.87"></line><line x1="1288" y1="112" x2="1344" y2="168" opacity="0.87"></line><line x1="1400" y1="112" x2="1344" y2="168" opacity="0.87"></line><line x1="1456" y1="112" x2="1400" y2="168" opacity="0.87"></line><line x1="56" y1="168" x2="0" y2="224" opacity="0.80"></line><line x1="112" y1="168" x2="56" y2="224" opacity="0.80"></line><line x1="168" y1="168" x2="112" y2="224" opacity="0.80"></line><line x1="224" y1="168" x2="168" y2="224" opacity="0.80"></line><line x1="280" y1="168" x2="224" y2="224" opacity="0.80"></line><line x1="336" y1="168" x2="280" y2="224" opacity="0.80"></line><line x1="392" y1="168" x2="336" y2="224" opacity="0.80"></line><line x1="448" y1="168" x2="392" y2="224" opacity="0.80"></line><line x1="504" y1="168" x2="448" y2="224" opacity="0.80"></line><line x1="560" y1="168" x2="504" y2="224" opacity="0.80"></line><line x1="616" y1="168" x2="560" y2="224" opacity="0.80"></line><line x1="672" y1="168" x2="616" y2="224" opacity="0.80"></line><line x1="728" y1="168" x2="672" y2="224" opacity="0.80"></line><line x1="784" y1="168" x2="728" y2="224" opacity="0.80"></line><line x1="840" y1="168" x2="784" y2="224" opacity="0.80"></line><line x1="896" y1="168" x2="840" y2="224" opacity="0.80"></line><line x1="952" y1="168" x2="896" y2="224" opacity="0.80"></line><line x1="1008" y1="168" x2="952" y2="224" opacity="0.80"></line><line x1="1064" y1="168" x2="1008" y2="224" opacity="0.80"></line><line x1="1120" y1="168" x2="1064" y2="224" opacity="0.80"></line><line x1="1176" y1="168" x2="1120" y2="224" opacity="0.80"></line><line x1="1232" y1="168" x2="1176" y2="224" opacity="0.80"></line><line x1="1288" y1="168" x2="1232" y2="224" opacity="0.80"></line><line x1="1344" y1="168" x2="1288" y2="224" opacity="0.80"></line><line x1="1400" y1="168" x2="1344" y2="224" opacity="0.80"></line><line x1="1456" y1="168" x2="1400" y2="224" opacity="0.80"></line><line x1="56" y1="224" x2="0" y2="280" opacity="0.73"></line><line x1="112" y1="224" x2="56" y2="280" opacity="0.73"></line><line x1="168" y1="224" x2="112" y2="280" opacity="0.73"></line><line x1="224" y1="224" x2="168" y2="280" opacity="0.73"></line><line x1="224" y1="224" x2="280" y2="280" opacity="0.73"></line><line x1="336" y1="224" x2="280" y2="280" opacity="0.73"></line><line x1="392" y1="224" x2="336" y2="280" opacity="0.73"></line><line x1="448" y1="224" x2="392" y2="280" opacity="0.73"></line><line x1="448" y1="224" x2="504" y2="280" opacity="0.73"></line><line x1="560" y1="224" x2="504" y2="280" opacity="0.73"></line><line x1="616" y1="224" x2="560" y2="280" opacity="0.73"></line><line x1="672" y1="224" x2="616" y2="280" opacity="0.73"></line><line x1="728" y1="224" x2="672" y2="280" opacity="0.73"></line><line x1="784" y1="224" x2="728" y2="280" opacity="0.73"></line><line x1="784" y1="224" x2="840" y2="280" opacity="0.73"></line><line x1="896" y1="224" x2="840" y2="280" opacity="0.73"></line><line x1="896" y1="224" x2="952" y2="280" opacity="0.73"></line><line x1="1008" y1="224" x2="952" y2="280" opacity="0.73"></line><line x1="1008" y1="224" x2="1064" y2="280" opacity="0.73"></line><line x1="1120" y1="224" x2="1064" y2="280" opacity="0.73"></line><line x1="1176" y1="224" x2="1120" y2="280" opacity="0.73"></line><line x1="1176" y1="224" x2="1232" y2="280" opacity="0.73"></line><line x1="1288" y1="224" x2="1232" y2="280" opacity="0.73"></line><line x1="1344" y1="224" x2="1288" y2="280" opacity="0.73"></line><line x1="1400" y1="224" x2="1344" y2="280" opacity="0.73"></line><line x1="1456" y1="224" x2="1400" y2="280" opacity="0.73"></line><line x1="0" y1="280" x2="56" y2="336" opacity="0.67"></line><line x1="56" y1="280" x2="112" y2="336" opacity="0.67"></line><line x1="168" y1="280" x2="112" y2="336" opacity="0.67"></line><line x1="224" y1="280" x2="168" y2="336" opacity="0.67"></line><line x1="224" y1="280" x2="280" y2="336" opacity="0.67"></line><line x1="336" y1="280" x2="280" y2="336" opacity="0.67"></line><line x1="392" y1="280" x2="336" y2="336" opacity="0.67"></line><line x1="392" y1="280" x2="448" y2="336" opacity="0.67"></line><line x1="504" y1="280" x2="448" y2="336" opacity="0.67"></line><line x1="560" y1="280" x2="504" y2="336" opacity="0.67"></line><line x1="616" y1="280" x2="560" y2="336" opacity="0.67"></line><line x1="672" y1="280" x2="616" y2="336" opacity="0.67"></line><line x1="728" y1="280" x2="672" y2="336" opacity="0.67"></line><line x1="784" y1="280" x2="728" y2="336" opacity="0.67"></line><line x1="840" y1="280" x2="784" y2="336" opacity="0.67"></line><line x1="896" y1="280" x2="840" y2="336" opacity="0.67"></line><line x1="952" y1="280" x2="896" y2="336" opacity="0.67"></line><line x1="1008" y1="280" x2="952" y2="336" opacity="0.67"></line><line x1="1064" y1="280" x2="1008" y2="336" opacity="0.67"></line><line x1="1120" y1="280" x2="1064" y2="336" opacity="0.67"></line><line x1="1176" y1="280" x2="1120" y2="336" opacity="0.67"></line><line x1="1176" y1="280" x2="1232" y2="336" opacity="0.67"></line><line x1="1288" y1="280" x2="1232" y2="336" opacity="0.67"></line><line x1="1344" y1="280" x2="1288" y2="336" opacity="0.67"></line><line x1="1400" y1="280" x2="1344" y2="336" opacity="0.67"></line><line x1="1400" y1="280" x2="1456" y2="336" opacity="0.67"></line><line x1="56" y1="336" x2="0" y2="392" opacity="0.60"></line><line x1="112" y1="336" x2="56" y2="392" opacity="0.60"></line><line x1="168" y1="336" x2="112" y2="392" opacity="0.60"></line><line x1="224" y1="336" x2="168" y2="392" opacity="0.60"></line><line x1="224" y1="336" x2="280" y2="392" opacity="0.60"></line><line x1="336" y1="336" x2="280" y2="392" opacity="0.60"></line><line x1="392" y1="336" x2="336" y2="392" opacity="0.60"></line><line x1="448" y1="336" x2="392" y2="392" opacity="0.60"></line><line x1="504" y1="336" x2="448" y2="392" opacity="0.60"></line><line x1="560" y1="336" x2="504" y2="392" opacity="0.60"></line><line x1="560" y1="336" x2="616" y2="392" opacity="0.60"></line><line x1="672" y1="336" x2="616" y2="392" opacity="0.60"></line><line x1="728" y1="336" x2="672" y2="392" opacity="0.60"></line><line x1="784" y1="336" x2="728" y2="392" opacity="0.60"></line><line x1="840" y1="336" x2="784" y2="392" opacity="0.60"></line><line x1="896" y1="336" x2="840" y2="392" opacity="0.60"></line><line x1="896" y1="336" x2="952" y2="392" opacity="0.60"></line><line x1="1008" y1="336" x2="952" y2="392" opacity="0.60"></line><line x1="1064" y1="336" x2="1008" y2="392" opacity="0.60"></line><line x1="1120" y1="336" x2="1064" y2="392" opacity="0.60"></line><line x1="1176" y1="336" x2="1120" y2="392" opacity="0.60"></line><line x1="1232" y1="336" x2="1176" y2="392" opacity="0.60"></line><line x1="1288" y1="336" x2="1232" y2="392" opacity="0.60"></line><line x1="1344" y1="336" x2="1288" y2="392" opacity="0.60"></line><line x1="1344" y1="336" x2="1400" y2="392" opacity="0.60"></line><line x1="1456" y1="336" x2="1400" y2="392" opacity="0.60"></line><line x1="56" y1="392" x2="0" y2="448" opacity="0.53"></line><line x1="112" y1="392" x2="56" y2="448" opacity="0.53"></line><line x1="168" y1="392" x2="112" y2="448" opacity="0.53"></line><line x1="224" y1="392" x2="168" y2="448" opacity="0.53"></line><line x1="224" y1="392" x2="280" y2="448" opacity="0.53"></line><line x1="336" y1="392" x2="280" y2="448" opacity="0.53"></line><line x1="336" y1="392" x2="392" y2="448" opacity="0.53"></line><line x1="448" y1="392" x2="392" y2="448" opacity="0.53"></line><line x1="448" y1="392" x2="504" y2="448" opacity="0.53"></line><line x1="560" y1="392" x2="504" y2="448" opacity="0.53"></line><line x1="616" y1="392" x2="560" y2="448" opacity="0.53"></line><line x1="672" y1="392" x2="616" y2="448" opacity="0.53"></line><line x1="728" y1="392" x2="672" y2="448" opacity="0.53"></line><line x1="784" y1="392" x2="728" y2="448" opacity="0.53"></line><line x1="840" y1="392" x2="784" y2="448" opacity="0.53"></line><line x1="840" y1="392" x2="896" y2="448" opacity="0.53"></line><line x1="952" y1="392" x2="896" y2="448" opacity="0.53"></line><line x1="1008" y1="392" x2="952" y2="448" opacity="0.53"></line><line x1="1064" y1="392" x2="1008" y2="448" opacity="0.53"></line><line x1="1120" y1="392" x2="1064" y2="448" opacity="0.53"></line><line x1="1176" y1="392" x2="1120" y2="448" opacity="0.53"></line><line x1="1232" y1="392" x2="1176" y2="448" opacity="0.53"></line><line x1="1288" y1="392" x2="1232" y2="448" opacity="0.53"></line><line x1="1344" y1="392" x2="1288" y2="448" opacity="0.53"></line><line x1="1400" y1="392" x2="1344" y2="448" opacity="0.53"></line><line x1="1456" y1="392" x2="1400" y2="448" opacity="0.53"></line><line x1="56" y1="448" x2="0" y2="504" opacity="0.47"></line><line x1="112" y1="448" x2="56" y2="504" opacity="0.47"></line><line x1="168" y1="448" x2="112" y2="504" opacity="0.47"></line><line x1="224" y1="448" x2="168" y2="504" opacity="0.47"></line><line x1="280" y1="448" x2="224" y2="504" opacity="0.47"></line><line x1="336" y1="448" x2="280" y2="504" opacity="0.47"></line><line x1="392" y1="448" x2="336" y2="504" opacity="0.47"></line><line x1="392" y1="448" x2="448" y2="504" opacity="0.47"></line><line x1="504" y1="448" x2="448" y2="504" opacity="0.47"></line><line x1="560" y1="448" x2="504" y2="504" opacity="0.47"></line><line x1="616" y1="448" x2="560" y2="504" opacity="0.47"></line><line x1="616" y1="448" x2="672" y2="504" opacity="0.47"></line><line x1="728" y1="448" x2="672" y2="504" opacity="0.47"></line><line x1="784" y1="448" x2="728" y2="504" opacity="0.47"></line><line x1="840" y1="448" x2="784" y2="504" opacity="0.47"></line><line x1="840" y1="448" x2="896" y2="504" opacity="0.47"></line><line x1="952" y1="448" x2="896" y2="504" opacity="0.47"></line><line x1="952" y1="448" x2="1008" y2="504" opacity="0.47"></line><line x1="1064" y1="448" x2="1008" y2="504" opacity="0.47"></line><line x1="1120" y1="448" x2="1064" y2="504" opacity="0.47"></line><line x1="1176" y1="448" x2="1120" y2="504" opacity="0.47"></line><line x1="1232" y1="448" x2="1176" y2="504" opacity="0.47"></line><line x1="1288" y1="448" x2="1232" y2="504" opacity="0.47"></line><line x1="1344" y1="448" x2="1288" y2="504" opacity="0.47"></line><line x1="1344" y1="448" x2="1400" y2="504" opacity="0.47"></line><line x1="1456" y1="448" x2="1400" y2="504" opacity="0.47"></line><line x1="56" y1="504" x2="0" y2="560" opacity="0.40"></line><line x1="112" y1="504" x2="56" y2="560" opacity="0.40"></line><line x1="168" y1="504" x2="112" y2="560" opacity="0.40"></line><line x1="224" y1="504" x2="168" y2="560" opacity="0.40"></line><line x1="280" y1="504" x2="224" y2="560" opacity="0.40"></line><line x1="336" y1="504" x2="280" y2="560" opacity="0.40"></line><line x1="392" y1="504" x2="336" y2="560" opacity="0.40"></line><line x1="448" y1="504" x2="392" y2="560" opacity="0.40"></line><line x1="504" y1="504" x2="448" y2="560" opacity="0.40"></line><line x1="560" y1="504" x2="504" y2="560" opacity="0.40"></line><line x1="616" y1="504" x2="560" y2="560" opacity="0.40"></line><line x1="616" y1="504" x2="672" y2="560" opacity="0.40"></line><line x1="728" y1="504" x2="672" y2="560" opacity="0.40"></line><line x1="728" y1="504" x2="784" y2="560" opacity="0.40"></line><line x1="840" y1="504" x2="784" y2="560" opacity="0.40"></line><line x1="896" y1="504" x2="840" y2="560" opacity="0.40"></line><line x1="896" y1="504" x2="952" y2="560" opacity="0.40"></line><line x1="1008" y1="504" x2="952" y2="560" opacity="0.40"></line><line x1="1064" y1="504" x2="1008" y2="560" opacity="0.40"></line><line x1="1064" y1="504" x2="1120" y2="560" opacity="0.40"></line><line x1="1176" y1="504" x2="1120" y2="560" opacity="0.40"></line><line x1="1232" y1="504" x2="1176" y2="560" opacity="0.40"></line><line x1="1288" y1="504" x2="1232" y2="560" opacity="0.40"></line><line x1="1344" y1="504" x2="1288" y2="560" opacity="0.40"></line><line x1="1400" y1="504" x2="1344" y2="560" opacity="0.40"></line><line x1="1456" y1="504" x2="1400" y2="560" opacity="0.40"></line><line x1="56" y1="560" x2="0" y2="616" opacity="0.34"></line><line x1="112" y1="560" x2="56" y2="616" opacity="0.34"></line><line x1="112" y1="560" x2="168" y2="616" opacity="0.34"></line><line x1="224" y1="560" x2="168" y2="616" opacity="0.34"></line><line x1="280" y1="560" x2="224" y2="616" opacity="0.34"></line><line x1="336" y1="560" x2="280" y2="616" opacity="0.34"></line><line x1="336" y1="560" x2="392" y2="616" opacity="0.34"></line><line x1="448" y1="560" x2="392" y2="616" opacity="0.34"></line><line x1="504" y1="560" x2="448" y2="616" opacity="0.34"></line><line x1="560" y1="560" x2="504" y2="616" opacity="0.34"></line><line x1="616" y1="560" x2="560" y2="616" opacity="0.34"></line><line x1="672" y1="560" x2="616" y2="616" opacity="0.34"></line><line x1="728" y1="560" x2="672" y2="616" opacity="0.34"></line><line x1="784" y1="560" x2="728" y2="616" opacity="0.34"></line><line x1="840" y1="560" x2="784" y2="616" opacity="0.34"></line><line x1="896" y1="560" x2="840" y2="616" opacity="0.34"></line><line x1="952" y1="560" x2="896" y2="616" opacity="0.34"></line><line x1="952" y1="560" x2="1008" y2="616" opacity="0.34"></line><line x1="1064" y1="560" x2="1008" y2="616" opacity="0.34"></line><line x1="1120" y1="560" x2="1064" y2="616" opacity="0.34"></line><line x1="1176" y1="560" x2="1120" y2="616" opacity="0.34"></line><line x1="1232" y1="560" x2="1176" y2="616" opacity="0.34"></line><line x1="1288" y1="560" x2="1232" y2="616" opacity="0.34"></line><line x1="1344" y1="560" x2="1288" y2="616" opacity="0.34"></line><line x1="1400" y1="560" x2="1344" y2="616" opacity="0.34"></line><line x1="1400" y1="560" x2="1456" y2="616" opacity="0.34"></line><line x1="56" y1="616" x2="0" y2="672" opacity="0.27"></line><line x1="112" y1="616" x2="56" y2="672" opacity="0.27"></line><line x1="168" y1="616" x2="112" y2="672" opacity="0.27"></line><line x1="224" y1="616" x2="168" y2="672" opacity="0.27"></line><line x1="280" y1="616" x2="224" y2="672" opacity="0.27"></line><line x1="336" y1="616" x2="280" y2="672" opacity="0.27"></line><line x1="336" y1="616" x2="392" y2="672" opacity="0.27"></line><line x1="392" y1="616" x2="448" y2="672" opacity="0.27"></line><line x1="504" y1="616" x2="448" y2="672" opacity="0.27"></line><line x1="560" y1="616" x2="504" y2="672" opacity="0.27"></line><line x1="616" y1="616" x2="560" y2="672" opacity="0.27"></line><line x1="672" y1="616" x2="616" y2="672" opacity="0.27"></line><line x1="728" y1="616" x2="672" y2="672" opacity="0.27"></line><line x1="784" y1="616" x2="728" y2="672" opacity="0.27"></line><line x1="840" y1="616" x2="784" y2="672" opacity="0.27"></line><line x1="840" y1="616" x2="896" y2="672" opacity="0.27"></line><line x1="952" y1="616" x2="896" y2="672" opacity="0.27"></line><line x1="952" y1="616" x2="1008" y2="672" opacity="0.27"></line><line x1="1064" y1="616" x2="1008" y2="672" opacity="0.27"></line><line x1="1120" y1="616" x2="1064" y2="672" opacity="0.27"></line><line x1="1176" y1="616" x2="1120" y2="672" opacity="0.27"></line><line x1="1232" y1="616" x2="1176" y2="672" opacity="0.27"></line><line x1="1288" y1="616" x2="1232" y2="672" opacity="0.27"></line><line x1="1344" y1="616" x2="1288" y2="672" opacity="0.27"></line><line x1="1400" y1="616" x2="1344" y2="672" opacity="0.27"></line><line x1="1456" y1="616" x2="1400" y2="672" opacity="0.27"></line><line x1="56" y1="672" x2="0" y2="728" opacity="0.20"></line><line x1="112" y1="672" x2="56" y2="728" opacity="0.20"></line><line x1="168" y1="672" x2="112" y2="728" opacity="0.20"></line><line x1="224" y1="672" x2="168" y2="728" opacity="0.20"></line><line x1="224" y1="672" x2="280" y2="728" opacity="0.20"></line><line x1="280" y1="672" x2="336" y2="728" opacity="0.20"></line><line x1="392" y1="672" x2="336" y2="728" opacity="0.20"></line><line x1="392" y1="672" x2="448" y2="728" opacity="0.20"></line><line x1="504" y1="672" x2="448" y2="728" opacity="0.20"></line><line x1="560" y1="672" x2="504" y2="728" opacity="0.20"></line><line x1="560" y1="672" x2="616" y2="728" opacity="0.20"></line><line x1="672" y1="672" x2="616" y2="728" opacity="0.20"></line><line x1="728" y1="672" x2="672" y2="728" opacity="0.20"></line><line x1="728" y1="672" x2="784" y2="728" opacity="0.20"></line><line x1="840" y1="672" x2="784" y2="728" opacity="0.20"></line><line x1="840" y1="672" x2="896" y2="728" opacity="0.20"></line><line x1="952" y1="672" x2="896" y2="728" opacity="0.20"></line><line x1="1008" y1="672" x2="952" y2="728" opacity="0.20"></line><line x1="1064" y1="672" x2="1008" y2="728" opacity="0.20"></line><line x1="1064" y1="672" x2="1120" y2="728" opacity="0.20"></line><line x1="1120" y1="672" x2="1176" y2="728" opacity="0.20"></line><line x1="1232" y1="672" x2="1176" y2="728" opacity="0.20"></line><line x1="1232" y1="672" x2="1288" y2="728" opacity="0.20"></line><line x1="1344" y1="672" x2="1288" y2="728" opacity="0.20"></line><line x1="1400" y1="672" x2="1344" y2="728" opacity="0.20"></line><line x1="1456" y1="672" x2="1400" y2="728" opacity="0.20"></line><line x1="0" y1="728" x2="56" y2="784" opacity="0.14"></line><line x1="112" y1="728" x2="56" y2="784" opacity="0.14"></line><line x1="112" y1="728" x2="168" y2="784" opacity="0.14"></line><line x1="224" y1="728" x2="168" y2="784" opacity="0.14"></line><line x1="224" y1="728" x2="280" y2="784" opacity="0.14"></line><line x1="280" y1="728" x2="336" y2="784" opacity="0.14"></line><line x1="392" y1="728" x2="336" y2="784" opacity="0.14"></line><line x1="392" y1="728" x2="448" y2="784" opacity="0.14"></line><line x1="504" y1="728" x2="448" y2="784" opacity="0.14"></line><line x1="560" y1="728" x2="504" y2="784" opacity="0.14"></line><line x1="616" y1="728" x2="560" y2="784" opacity="0.14"></line><line x1="672" y1="728" x2="616" y2="784" opacity="0.14"></line><line x1="728" y1="728" x2="672" y2="784" opacity="0.14"></line><line x1="784" y1="728" x2="728" y2="784" opacity="0.14"></line><line x1="784" y1="728" x2="840" y2="784" opacity="0.14"></line><line x1="896" y1="728" x2="840" y2="784" opacity="0.14"></line><line x1="952" y1="728" x2="896" y2="784" opacity="0.14"></line><line x1="952" y1="728" x2="1008" y2="784" opacity="0.14"></line><line x1="1064" y1="728" x2="1008" y2="784" opacity="0.14"></line><line x1="1120" y1="728" x2="1064" y2="784" opacity="0.14"></line><line x1="1176" y1="728" x2="1120" y2="784" opacity="0.14"></line><line x1="1232" y1="728" x2="1176" y2="784" opacity="0.14"></line><line x1="1232" y1="728" x2="1288" y2="784" opacity="0.14"></line><line x1="1344" y1="728" x2="1288" y2="784" opacity="0.14"></line><line x1="1400" y1="728" x2="1344" y2="784" opacity="0.14"></line><line x1="1456" y1="728" x2="1400" y2="784" opacity="0.14"></line><line x1="56" y1="784" x2="0" y2="840" opacity="0.07"></line><line x1="112" y1="784" x2="56" y2="840" opacity="0.07"></line><line x1="168" y1="784" x2="112" y2="840" opacity="0.07"></line><line x1="224" y1="784" x2="168" y2="840" opacity="0.07"></line><line x1="280" y1="784" x2="224" y2="840" opacity="0.07"></line><line x1="336" y1="784" x2="280" y2="840" opacity="0.07"></line><line x1="392" y1="784" x2="336" y2="840" opacity="0.07"></line><line x1="448" y1="784" x2="392" y2="840" opacity="0.07"></line><line x1="504" y1="784" x2="448" y2="840" opacity="0.07"></line><line x1="560" y1="784" x2="504" y2="840" opacity="0.07"></line><line x1="616" y1="784" x2="560" y2="840" opacity="0.07"></line><line x1="672" y1="784" x2="616" y2="840" opacity="0.07"></line><line x1="728" y1="784" x2="672" y2="840" opacity="0.07"></line><line x1="728" y1="784" x2="784" y2="840" opacity="0.07"></line><line x1="840" y1="784" x2="784" y2="840" opacity="0.07"></line><line x1="840" y1="784" x2="896" y2="840" opacity="0.07"></line><line x1="952" y1="784" x2="896" y2="840" opacity="0.07"></line><line x1="1008" y1="784" x2="952" y2="840" opacity="0.07"></line><line x1="1008" y1="784" x2="1064" y2="840" opacity="0.07"></line><line x1="1120" y1="784" x2="1064" y2="840" opacity="0.07"></line><line x1="1120" y1="784" x2="1176" y2="840" opacity="0.07"></line><line x1="1232" y1="784" x2="1176" y2="840" opacity="0.07"></line><line x1="1288" y1="784" x2="1232" y2="840" opacity="0.07"></line><line x1="1344" y1="784" x2="1288" y2="840" opacity="0.07"></line><line x1="1400" y1="784" x2="1344" y2="840" opacity="0.07"></line><line x1="1400" y1="784" x2="1456" y2="840" opacity="0.07"></line></g></svg>